<svg width="100" height="67" viewBox="0 0 100 67" fill="none" xmlns="http://www.w3.org/2000/svg">
<path fill-rule="evenodd" clip-rule="evenodd" d="M97.8111 0.00175617C96.2761 0.0523627 96.7203 0.743985 93.3971 1.56493C90.0403 2.39151 85.9805 1.88544 82.3706 3.40364C72.924 7.36219 71.3945 22.6679 60.143 28.5888C52.7657 32.7554 45.2422 33.7113 38.5172 35.8199C33.1192 37.9848 29.7623 39.4186 25.8037 42.8318C22.7336 45.4802 21.9857 48.0498 18.775 51.373C15.5193 55.7983 3.17697 51.8678 0 57.4177C1.67564 58.5029 2.64275 58.8009 5.58355 58.4129C4.97627 59.5656 1.1077 61.0838 1.81057 62.782C1.81057 62.782 11.1615 64.4857 19.0449 59.7287C22.7223 58.233 26.1692 55.0673 31.8821 54.3082C39.2819 53.3242 47.6207 55.8601 56.5668 56.5742C54.7169 60.2292 52.8107 62.3884 50.7696 65.4023C50.1398 66.0826 51.3094 66.6843 53.4798 66.2738C57.3822 65.3067 60.2105 64.2608 63.0163 62.3209C66.6769 59.7962 68.2513 57.4852 71.3383 53.8246C74.0205 58.1262 83.4783 59.0708 85.4182 55.3541C81.8083 53.8246 81.0379 45.8681 82.2749 42.4325C83.7369 39.16 84.7884 34.5323 85.9693 30.2307C87.032 26.3565 87.6898 20.4468 88.9606 17.4216C90.4788 13.6599 93.4309 12.4847 95.6463 10.4886C97.8618 8.49241 100.066 6.82801 99.9985 2.26218C99.976 0.777723 99.2113 -0.0432274 97.8111 0.00175617Z" fill="#1F305F"/>
<path d="M2.8225 61.9946C8.61976 62.1689 10.1942 62.0171 14.7769 60.0266C18.6736 58.3341 23.886 53.7739 28.4912 52.3007C35.25 50.1302 42.498 50.4563 49.6898 51.3054C52.0964 51.5922 54.5143 51.9914 56.2405 51.8058C58.9339 50.1527 59.0632 45.6656 60.7332 45.3057C60.2778 53.9875 56.5554 59.543 52.833 64.5812C60.677 63.1979 65.9176 58.3003 69.0889 52.2388C70.0505 50.4001 71.6474 47.3918 72.3783 45.3226C72.9575 46.6946 71.6249 47.5661 72.249 49.0618C77.2984 44.8952 79.6826 40.1495 81.7293 33.1995C84.1022 25.1587 86.5369 18.2481 88.0664 15.8696C89.5565 13.5473 91.8787 12.1134 93.9986 10.629C96.4052 8.93648 98.5588 7.1765 98.9299 3.95455C96.3883 3.71838 95.8035 3.13359 95.4268 1.85156C94.156 2.56568 92.9865 2.72312 91.6651 2.76248C90.518 2.79622 89.2585 2.74561 87.7178 2.90306C74.993 4.20758 74.4026 16.6455 65.1529 25.7772C64.5568 26.3564 63.539 27.2111 62.8643 27.7171C60.0078 29.8482 56.9489 31.0178 53.727 32.2492C48.5089 34.2397 43.5608 34.8189 38.6688 36.5395C35.0757 37.7991 31.7357 39.2442 28.7836 41.2628C28.047 41.7689 27.0461 42.6685 26.4051 43.1915C24.6732 44.6085 23.5374 46.1773 22.4353 47.7967C21.2995 49.4611 20.2086 51.1761 18.5386 52.8123C15.834 55.4664 5.73517 53.5883 2.17585 56.0512C1.78224 56.3267 1.46172 56.6528 1.24805 57.0464C3.18796 57.9292 4.48685 57.3894 6.71916 57.6312C6.99469 59.7623 2.09714 61.0219 2.8225 61.9946Z" fill="#C0765A"/>
<path fill-rule="evenodd" clip-rule="evenodd" d="M83.4783 8.16647C85.2776 9.72965 89.0562 8.47573 88.3815 5.36624C85.5812 5.13008 83.9618 6.08036 83.4783 8.16647Z" fill="#1F305F"/>
<path d="M96.0344 4.52831C95.5565 5.53482 94.6399 6.82809 94.6399 9.38653C94.6342 9.82512 94.3081 10.1288 94.3025 9.44839C94.325 6.94618 94.9885 5.86657 95.6913 4.44959C96.0118 3.87042 96.2087 4.10659 96.0344 4.52831Z" fill="#1F305F"/>
<path d="M95.5506 4.1515C94.9827 5.1074 93.6219 6.85614 93.4027 9.40896C93.3633 9.84755 93.0034 10.1174 93.0597 9.4427C93.3071 6.95735 94.3923 5.3998 95.2189 4.04467C95.59 3.49362 95.7643 3.74665 95.5506 4.1515Z" fill="#1F305F"/>
<path d="M95.1123 3.65118C94.4657 4.55648 92.3739 6.65946 91.9353 9.17854C91.8566 9.61151 91.4799 9.84767 91.5923 9.18417C92.0478 6.72694 93.8527 4.79264 94.7861 3.51624C95.2022 2.9933 95.3597 3.2632 95.1123 3.65118Z" fill="#1F305F"/>
<path d="M94.7186 3.08873C93.9539 3.89843 91.4573 6.57496 90.6701 9.00969C90.5295 9.42579 90.1247 9.61135 90.3271 8.96471C91.1199 6.59182 93.3073 4.039 94.415 2.90879C94.9042 2.45333 95.0166 2.74573 94.7186 3.08873Z" fill="#1F305F"/>
</svg>
